<?xml version="1.0" encoding="utf-8"?>
<svg width="564" height="564" viewBox="0 0 564 564" xmlns="http://www.w3.org/2000/svg" xmlns:xlink="http://www.w3.org/1999/xlink">
<rect width="564" height="564" fill="#ffffff"/>
<defs>
<rect id="p" width="12" height="12" />
</defs>
<g>
<use x="36" y="36" xlink:href="#p" fill="#000000" />
<use x="48" y="36" xlink:href="#p" fill="#000000" />
<use x="60" y="36" xlink:href="#p" fill="#000000" />
<use x="72" y="36" xlink:href="#p" fill="#000000" />
<use x="84" y="36" xlink:href="#p" fill="#000000" />
<use x="96" y="36" xlink:href="#p" fill="#000000" />
<use x="108" y="36" xlink:href="#p" fill="#000000" />
<use x="180" y="36" xlink:href="#p" fill="#000000" />
<use x="204" y="36" xlink:href="#p" fill="#000000" />
<use x="216" y="36" xlink:href="#p" fill="#000000" />
<use x="228" y="36" xlink:href="#p" fill="#000000" />
<use x="252" y="36" xlink:href="#p" fill="#000000" />
<use x="288" y="36" xlink:href="#p" fill="#000000" />
<use x="324" y="36" xlink:href="#p" fill="#000000" />
<use x="348" y="36" xlink:href="#p" fill="#000000" />
<use x="384" y="36" xlink:href="#p" fill="#000000" />
<use x="420" y="36" xlink:href="#p" fill="#000000" />
<use x="444" y="36" xlink:href="#p" fill="#000000" />
<use x="456" y="36" xlink:href="#p" fill="#000000" />
<use x="468" y="36" xlink:href="#p" fill="#000000" />
<use x="480" y="36" xlink:href="#p" fill="#000000" />
<use x="492" y="36" xlink:href="#p" fill="#000000" />
<use x="504" y="36" xlink:href="#p" fill="#000000" />
<use x="516" y="36" xlink:href="#p" fill="#000000" />
<use x="36" y="48" xlink:href="#p" fill="#000000" />
<use x="108" y="48" xlink:href="#p" fill="#000000" />
<use x="132" y="48" xlink:href="#p" fill="#000000" />
<use x="144" y="48" xlink:href="#p" fill="#000000" />
<use x="156" y="48" xlink:href="#p" fill="#000000" />
<use x="168" y="48" xlink:href="#p" fill="#000000" />
<use x="180" y="48" xlink:href="#p" fill="#000000" />
<use x="192" y="48" xlink:href="#p" fill="#000000" />
<use x="216" y="48" xlink:href="#p" fill="#000000" />
<use x="228" y="48" xlink:href="#p" fill="#000000" />
<use x="240" y="48" xlink:href="#p" fill="#000000" />
<use x="300" y="48" xlink:href="#p" fill="#000000" />
<use x="312" y="48" xlink:href="#p" fill="#000000" />
<use x="324" y="48" xlink:href="#p" fill="#000000" />
<use x="336" y="48" xlink:href="#p" fill="#000000" />
<use x="396" y="48" xlink:href="#p" fill="#000000" />
<use x="408" y="48" xlink:href="#p" fill="#000000" />
<use x="420" y="48" xlink:href="#p" fill="#000000" />
<use x="444" y="48" xlink:href="#p" fill="#000000" />
<use x="516" y="48" xlink:href="#p" fill="#000000" />
<use x="36" y="60" xlink:href="#p" fill="#000000" />
<use x="60" y="60" xlink:href="#p" fill="#000000" />
<use x="72" y="60" xlink:href="#p" fill="#000000" />
<use x="84" y="60" xlink:href="#p" fill="#000000" />
<use x="108" y="60" xlink:href="#p" fill="#000000" />
<use x="180" y="60" xlink:href="#p" fill="#000000" />
<use x="204" y="60" xlink:href="#p" fill="#000000" />
<use x="216" y="60" xlink:href="#p" fill="#000000" />
<use x="228" y="60" xlink:href="#p" fill="#000000" />
<use x="264" y="60" xlink:href="#p" fill="#000000" />
<use x="288" y="60" xlink:href="#p" fill="#000000" />
<use x="300" y="60" xlink:href="#p" fill="#000000" />
<use x="324" y="60" xlink:href="#p" fill="#000000" />
<use x="360" y="60" xlink:href="#p" fill="#000000" />
<use x="384" y="60" xlink:href="#p" fill="#000000" />
<use x="396" y="60" xlink:href="#p" fill="#000000" />
<use x="420" y="60" xlink:href="#p" fill="#000000" />
<use x="444" y="60" xlink:href="#p" fill="#000000" />
<use x="468" y="60" xlink:href="#p" fill="#000000" />
<use x="480" y="60" xlink:href="#p" fill="#000000" />
<use x="492" y="60" xlink:href="#p" fill="#000000" />
<use x="516" y="60" xlink:href="#p" fill="#000000" />
<use x="36" y="72" xlink:href="#p" fill="#000000" />
<use x="60" y="72" xlink:href="#p" fill="#000000" />
<use x="72" y="72" xlink:href="#p" fill="#000000" />
<use x="84" y="72" xlink:href="#p" fill="#000000" />
<use x="108" y="72" xlink:href="#p" fill="#000000" />
<use x="144" y="72" xlink:href="#p" fill="#000000" />
<use x="204" y="72" xlink:href="#p" fill="#000000" />
<use x="240" y="72" xlink:href="#p" fill="#000000" />
<use x="276" y="72" xlink:href="#p" fill="#000000" />
<use x="288" y="72" xlink:href="#p" fill="#000000" />
<use x="300" y="72" xlink:href="#p" fill="#000000" />
<use x="312" y="72" xlink:href="#p" fill="#000000" />
<use x="336" y="72" xlink:href="#p" fill="#000000" />
<use x="384" y="72" xlink:href="#p" fill="#000000" />
<use x="396" y="72" xlink:href="#p" fill="#000000" />
<use x="408" y="72" xlink:href="#p" fill="#000000" />
<use x="444" y="72" xlink:href="#p" fill="#000000" />
<use x="468" y="72" xlink:href="#p" fill="#000000" />
<use x="480" y="72" xlink:href="#p" fill="#000000" />
<use x="492" y="72" xlink:href="#p" fill="#000000" />
<use x="516" y="72" xlink:href="#p" fill="#000000" />
<use x="36" y="84" xlink:href="#p" fill="#000000" />
<use x="60" y="84" xlink:href="#p" fill="#000000" />
<use x="72" y="84" xlink:href="#p" fill="#000000" />
<use x="84" y="84" xlink:href="#p" fill="#000000" />
<use x="108" y="84" xlink:href="#p" fill="#000000" />
<use x="132" y="84" xlink:href="#p" fill="#000000" />
<use x="156" y="84" xlink:href="#p" fill="#000000" />
<use x="168" y="84" xlink:href="#p" fill="#000000" />
<use x="228" y="84" xlink:href="#p" fill="#000000" />
<use x="240" y="84" xlink:href="#p" fill="#000000" />
<use x="276" y="84" xlink:href="#p" fill="#000000" />
<use x="300" y="84" xlink:href="#p" fill="#000000" />
<use x="312" y="84" xlink:href="#p" fill="#000000" />
<use x="324" y="84" xlink:href="#p" fill="#000000" />
<use x="336" y="84" xlink:href="#p" fill="#000000" />
<use x="360" y="84" xlink:href="#p" fill="#000000" />
<use x="372" y="84" xlink:href="#p" fill="#000000" />
<use x="396" y="84" xlink:href="#p" fill="#000000" />
<use x="408" y="84" xlink:href="#p" fill="#000000" />
<use x="420" y="84" xlink:href="#p" fill="#000000" />
<use x="444" y="84" xlink:href="#p" fill="#000000" />
<use x="468" y="84" xlink:href="#p" fill="#000000" />
<use x="480" y="84" xlink:href="#p" fill="#000000" />
<use x="492" y="84" xlink:href="#p" fill="#000000" />
<use x="516" y="84" xlink:href="#p" fill="#000000" />
<use x="36" y="96" xlink:href="#p" fill="#000000" />
<use x="108" y="96" xlink:href="#p" fill="#000000" />
<use x="144" y="96" xlink:href="#p" fill="#000000" />
<use x="204" y="96" xlink:href="#p" fill="#000000" />
<use x="264" y="96" xlink:href="#p" fill="#000000" />
<use x="276" y="96" xlink:href="#p" fill="#000000" />
<use x="312" y="96" xlink:href="#p" fill="#000000" />
<use x="336" y="96" xlink:href="#p" fill="#000000" />
<use x="360" y="96" xlink:href="#p" fill="#000000" />
<use x="384" y="96" xlink:href="#p" fill="#000000" />
<use x="408" y="96" xlink:href="#p" fill="#000000" />
<use x="444" y="96" xlink:href="#p" fill="#000000" />
<use x="516" y="96" xlink:href="#p" fill="#000000" />
<use x="36" y="108" xlink:href="#p" fill="#000000" />
<use x="48" y="108" xlink:href="#p" fill="#000000" />
<use x="60" y="108" xlink:href="#p" fill="#000000" />
<use x="72" y="108" xlink:href="#p" fill="#000000" />
<use x="84" y="108" xlink:href="#p" fill="#000000" />
<use x="96" y="108" xlink:href="#p" fill="#000000" />
<use x="108" y="108" xlink:href="#p" fill="#000000" />
<use x="132" y="108" xlink:href="#p" fill="#000000" />
<use x="156" y="108" xlink:href="#p" fill="#000000" />
<use x="180" y="108" xlink:href="#p" fill="#000000" />
<use x="204" y="108" xlink:href="#p" fill="#000000" />
<use x="228" y="108" xlink:href="#p" fill="#000000" />
<use x="252" y="108" xlink:href="#p" fill="#000000" />
<use x="276" y="108" xlink:href="#p" fill="#000000" />
<use x="300" y="108" xlink:href="#p" fill="#000000" />
<use x="324" y="108" xlink:href="#p" fill="#000000" />
<use x="348" y="108" xlink:href="#p" fill="#000000" />
<use x="372" y="108" xlink:href="#p" fill="#000000" />
<use x="396" y="108" xlink:href="#p" fill="#000000" />
<use x="420" y="108" xlink:href="#p" fill="#000000" />
<use x="444" y="108" xlink:href="#p" fill="#000000" />
<use x="456" y="108" xlink:href="#p" fill="#000000" />
<use x="468" y="108" xlink:href="#p" fill="#000000" />
<use x="480" y="108" xlink:href="#p" fill="#000000" />
<use x="492" y="108" xlink:href="#p" fill="#000000" />
<use x="504" y="108" xlink:href="#p" fill="#000000" />
<use x="516" y="108" xlink:href="#p" fill="#000000" />
<use x="144" y="120" xlink:href="#p" fill="#000000" />
<use x="156" y="120" xlink:href="#p" fill="#000000" />
<use x="168" y="120" xlink:href="#p" fill="#000000" />
<use x="192" y="120" xlink:href="#p" fill="#000000" />
<use x="240" y="120" xlink:href="#p" fill="#000000" />
<use x="252" y="120" xlink:href="#p" fill="#000000" />
<use x="264" y="120" xlink:href="#p" fill="#000000" />
<use x="288" y="120" xlink:href="#p" fill="#000000" />
<use x="300" y="120" xlink:href="#p" fill="#000000" />
<use x="324" y="120" xlink:href="#p" fill="#000000" />
<use x="336" y="120" xlink:href="#p" fill="#000000" />
<use x="348" y="120" xlink:href="#p" fill="#000000" />
<use x="372" y="120" xlink:href="#p" fill="#000000" />
<use x="384" y="120" xlink:href="#p" fill="#000000" />
<use x="396" y="120" xlink:href="#p" fill="#000000" />
<use x="420" y="120" xlink:href="#p" fill="#000000" />
<use x="36" y="132" xlink:href="#p" fill="#000000" />
<use x="60" y="132" xlink:href="#p" fill="#000000" />
<use x="84" y="132" xlink:href="#p" fill="#000000" />
<use x="108" y="132" xlink:href="#p" fill="#000000" />
<use x="144" y="132" xlink:href="#p" fill="#000000" />
<use x="156" y="132" xlink:href="#p" fill="#000000" />
<use x="168" y="132" xlink:href="#p" fill="#000000" />
<use x="180" y="132" xlink:href="#p" fill="#000000" />
<use x="216" y="132" xlink:href="#p" fill="#000000" />
<use x="228" y="132" xlink:href="#p" fill="#000000" />
<use x="240" y="132" xlink:href="#p" fill="#000000" />
<use x="276" y="132" xlink:href="#p" fill="#000000" />
<use x="288" y="132" xlink:href="#p" fill="#000000" />
<use x="324" y="132" xlink:href="#p" fill="#000000" />
<use x="336" y="132" xlink:href="#p" fill="#000000" />
<use x="372" y="132" xlink:href="#p" fill="#000000" />
<use x="384" y="132" xlink:href="#p" fill="#000000" />
<use x="408" y="132" xlink:href="#p" fill="#000000" />
<use x="468" y="132" xlink:href="#p" fill="#000000" />
<use x="504" y="132" xlink:href="#p" fill="#000000" />
<use x="36" y="144" xlink:href="#p" fill="#000000" />
<use x="48" y="144" xlink:href="#p" fill="#000000" />
<use x="72" y="144" xlink:href="#p" fill="#000000" />
<use x="84" y="144" xlink:href="#p" fill="#000000" />
<use x="120" y="144" xlink:href="#p" fill="#000000" />
<use x="132" y="144" xlink:href="#p" fill="#000000" />
<use x="168" y="144" xlink:href="#p" fill="#000000" />
<use x="180" y="144" xlink:href="#p" fill="#000000" />
<use x="192" y="144" xlink:href="#p" fill="#000000" />
<use x="216" y="144" xlink:href="#p" fill="#000000" />
<use x="252" y="144" xlink:href="#p" fill="#000000" />
<use x="276" y="144" xlink:href="#p" fill="#000000" />
<use x="288" y="144" xlink:href="#p" fill="#000000" />
<use x="324" y="144" xlink:href="#p" fill="#000000" />
<use x="348" y="144" xlink:href="#p" fill="#000000" />
<use x="372" y="144" xlink:href="#p" fill="#000000" />
<use x="396" y="144" xlink:href="#p" fill="#000000" />
<use x="420" y="144" xlink:href="#p" fill="#000000" />
<use x="456" y="144" xlink:href="#p" fill="#000000" />
<use x="480" y="144" xlink:href="#p" fill="#000000" />
<use x="492" y="144" xlink:href="#p" fill="#000000" />
<use x="504" y="144" xlink:href="#p" fill="#000000" />
<use x="36" y="156" xlink:href="#p" fill="#000000" />
<use x="48" y="156" xlink:href="#p" fill="#000000" />
<use x="84" y="156" xlink:href="#p" fill="#000000" />
<use x="96" y="156" xlink:href="#p" fill="#000000" />
<use x="108" y="156" xlink:href="#p" fill="#000000" />
<use x="120" y="156" xlink:href="#p" fill="#000000" />
<use x="132" y="156" xlink:href="#p" fill="#000000" />
<use x="156" y="156" xlink:href="#p" fill="#000000" />
<use x="180" y="156" xlink:href="#p" fill="#000000" />
<use x="192" y="156" xlink:href="#p" fill="#000000" />
<use x="204" y="156" xlink:href="#p" fill="#000000" />
<use x="228" y="156" xlink:href="#p" fill="#000000" />
<use x="240" y="156" xlink:href="#p" fill="#000000" />
<use x="276" y="156" xlink:href="#p" fill="#000000" />
<use x="300" y="156" xlink:href="#p" fill="#000000" />
<use x="324" y="156" xlink:href="#p" fill="#000000" />
<use x="372" y="156" xlink:href="#p" fill="#000000" />
<use x="432" y="156" xlink:href="#p" fill="#000000" />
<use x="456" y="156" xlink:href="#p" fill="#000000" />
<use x="468" y="156" xlink:href="#p" fill="#000000" />
<use x="492" y="156" xlink:href="#p" fill="#000000" />
<use x="504" y="156" xlink:href="#p" fill="#000000" />
<use x="36" y="168" xlink:href="#p" fill="#000000" />
<use x="48" y="168" xlink:href="#p" fill="#000000" />
<use x="60" y="168" xlink:href="#p" fill="#000000" />
<use x="84" y="168" xlink:href="#p" fill="#000000" />
<use x="96" y="168" xlink:href="#p" fill="#000000" />
<use x="132" y="168" xlink:href="#p" fill="#000000" />
<use x="144" y="168" xlink:href="#p" fill="#000000" />
<use x="156" y="168" xlink:href="#p" fill="#000000" />
<use x="168" y="168" xlink:href="#p" fill="#000000" />
<use x="180" y="168" xlink:href="#p" fill="#000000" />
<use x="204" y="168" xlink:href="#p" fill="#000000" />
<use x="276" y="168" xlink:href="#p" fill="#000000" />
<use x="288" y="168" xlink:href="#p" fill="#000000" />
<use x="324" y="168" xlink:href="#p" fill="#000000" />
<use x="336" y="168" xlink:href="#p" fill="#000000" />
<use x="348" y="168" xlink:href="#p" fill="#000000" />
<use x="360" y="168" xlink:href="#p" fill="#000000" />
<use x="372" y="168" xlink:href="#p" fill="#000000" />
<use x="384" y="168" xlink:href="#p" fill="#000000" />
<use x="420" y="168" xlink:href="#p" fill="#000000" />
<use x="432" y="168" xlink:href="#p" fill="#000000" />
<use x="444" y="168" xlink:href="#p" fill="#000000" />
<use x="456" y="168" xlink:href="#p" fill="#000000" />
<use x="504" y="168" xlink:href="#p" fill="#000000" />
<use x="516" y="168" xlink:href="#p" fill="#000000" />
<use x="72" y="180" xlink:href="#p" fill="#000000" />
<use x="96" y="180" xlink:href="#p" fill="#000000" />
<use x="108" y="180" xlink:href="#p" fill="#000000" />
<use x="120" y="180" xlink:href="#p" fill="#000000" />
<use x="132" y="180" xlink:href="#p" fill="#000000" />
<use x="144" y="180" xlink:href="#p" fill="#000000" />
<use x="168" y="180" xlink:href="#p" fill="#000000" />
<use x="180" y="180" xlink:href="#p" fill="#000000" />
<use x="192" y="180" xlink:href="#p" fill="#000000" />
<use x="216" y="180" xlink:href="#p" fill="#000000" />
<use x="276" y="180" xlink:href="#p" fill="#000000" />
<use x="300" y="180" xlink:href="#p" fill="#000000" />
<use x="312" y="180" xlink:href="#p" fill="#000000" />
<use x="360" y="180" xlink:href="#p" fill="#000000" />
<use x="372" y="180" xlink:href="#p" fill="#000000" />
<use x="384" y="180" xlink:href="#p" fill="#000000" />
<use x="408" y="180" xlink:href="#p" fill="#000000" />
<use x="432" y="180" xlink:href="#p" fill="#000000" />
<use x="480" y="180" xlink:href="#p" fill="#000000" />
<use x="504" y="180" xlink:href="#p" fill="#000000" />
<use x="36" y="192" xlink:href="#p" fill="#000000" />
<use x="60" y="192" xlink:href="#p" fill="#000000" />
<use x="96" y="192" xlink:href="#p" fill="#000000" />
<use x="144" y="192" xlink:href="#p" fill="#000000" />
<use x="156" y="192" xlink:href="#p" fill="#000000" />
<use x="168" y="192" xlink:href="#p" fill="#000000" />
<use x="192" y="192" xlink:href="#p" fill="#000000" />
<use x="228" y="192" xlink:href="#p" fill="#000000" />
<use x="240" y="192" xlink:href="#p" fill="#000000" />
<use x="264" y="192" xlink:href="#p" fill="#000000" />
<use x="276" y="192" xlink:href="#p" fill="#000000" />
<use x="312" y="192" xlink:href="#p" fill="#000000" />
<use x="336" y="192" xlink:href="#p" fill="#000000" />
<use x="360" y="192" xlink:href="#p" fill="#000000" />
<use x="372" y="192" xlink:href="#p" fill="#000000" />
<use x="408" y="192" xlink:href="#p" fill="#000000" />
<use x="432" y="192" xlink:href="#p" fill="#000000" />
<use x="492" y="192" xlink:href="#p" fill="#000000" />
<use x="72" y="204" xlink:href="#p" fill="#000000" />
<use x="84" y="204" xlink:href="#p" fill="#000000" />
<use x="108" y="204" xlink:href="#p" fill="#000000" />
<use x="120" y="204" xlink:href="#p" fill="#000000" />
<use x="144" y="204" xlink:href="#p" fill="#000000" />
<use x="204" y="204" xlink:href="#p" fill="#000000" />
<use x="252" y="204" xlink:href="#p" fill="#000000" />
<use x="264" y="204" xlink:href="#p" fill="#000000" />
<use x="276" y="204" xlink:href="#p" fill="#000000" />
<use x="288" y="204" xlink:href="#p" fill="#000000" />
<use x="348" y="204" xlink:href="#p" fill="#000000" />
<use x="360" y="204" xlink:href="#p" fill="#000000" />
<use x="372" y="204" xlink:href="#p" fill="#000000" />
<use x="384" y="204" xlink:href="#p" fill="#000000" />
<use x="444" y="204" xlink:href="#p" fill="#000000" />
<use x="456" y="204" xlink:href="#p" fill="#000000" />
<use x="468" y="204" xlink:href="#p" fill="#000000" />
<use x="480" y="204" xlink:href="#p" fill="#000000" />
<use x="492" y="204" xlink:href="#p" fill="#000000" />
<use x="516" y="204" xlink:href="#p" fill="#000000" />
<use x="36" y="216" xlink:href="#p" fill="#000000" />
<use x="48" y="216" xlink:href="#p" fill="#000000" />
<use x="60" y="216" xlink:href="#p" fill="#000000" />
<use x="72" y="216" xlink:href="#p" fill="#000000" />
<use x="96" y="216" xlink:href="#p" fill="#000000" />
<use x="120" y="216" xlink:href="#p" fill="#000000" />
<use x="132" y="216" xlink:href="#p" fill="#000000" />
<use x="144" y="216" xlink:href="#p" fill="#000000" />
<use x="216" y="216" xlink:href="#p" fill="#000000" />
<use x="228" y="216" xlink:href="#p" fill="#000000" />
<use x="240" y="216" xlink:href="#p" fill="#000000" />
<use x="252" y="216" xlink:href="#p" fill="#000000" />
<use x="276" y="216" xlink:href="#p" fill="#000000" />
<use x="312" y="216" xlink:href="#p" fill="#000000" />
<use x="336" y="216" xlink:href="#p" fill="#000000" />
<use x="348" y="216" xlink:href="#p" fill="#000000" />
<use x="372" y="216" xlink:href="#p" fill="#000000" />
<use x="408" y="216" xlink:href="#p" fill="#000000" />
<use x="444" y="216" xlink:href="#p" fill="#000000" />
<use x="468" y="216" xlink:href="#p" fill="#000000" />
<use x="480" y="216" xlink:href="#p" fill="#000000" />
<use x="492" y="216" xlink:href="#p" fill="#000000" />
<use x="72" y="228" xlink:href="#p" fill="#000000" />
<use x="84" y="228" xlink:href="#p" fill="#000000" />
<use x="108" y="228" xlink:href="#p" fill="#000000" />
<use x="144" y="228" xlink:href="#p" fill="#000000" />
<use x="168" y="228" xlink:href="#p" fill="#000000" />
<use x="180" y="228" xlink:href="#p" fill="#000000" />
<use x="228" y="228" xlink:href="#p" fill="#000000" />
<use x="252" y="228" xlink:href="#p" fill="#000000" />
<use x="264" y="228" xlink:href="#p" fill="#000000" />
<use x="324" y="228" xlink:href="#p" fill="#000000" />
<use x="348" y="228" xlink:href="#p" fill="#000000" />
<use x="360" y="228" xlink:href="#p" fill="#000000" />
<use x="420" y="228" xlink:href="#p" fill="#000000" />
<use x="444" y="228" xlink:href="#p" fill="#000000" />
<use x="456" y="228" xlink:href="#p" fill="#000000" />
<use x="492" y="228" xlink:href="#p" fill="#000000" />
<use x="516" y="228" xlink:href="#p" fill="#000000" />
<use x="36" y="240" xlink:href="#p" fill="#000000" />
<use x="60" y="240" xlink:href="#p" fill="#000000" />
<use x="96" y="240" xlink:href="#p" fill="#000000" />
<use x="120" y="240" xlink:href="#p" fill="#000000" />
<use x="144" y="240" xlink:href="#p" fill="#000000" />
<use x="156" y="240" xlink:href="#p" fill="#000000" />
<use x="180" y="240" xlink:href="#p" fill="#000000" />
<use x="204" y="240" xlink:href="#p" fill="#000000" />
<use x="216" y="240" xlink:href="#p" fill="#000000" />
<use x="228" y="240" xlink:href="#p" fill="#000000" />
<use x="252" y="240" xlink:href="#p" fill="#000000" />
<use x="264" y="240" xlink:href="#p" fill="#000000" />
<use x="288" y="240" xlink:href="#p" fill="#000000" />
<use x="312" y="240" xlink:href="#p" fill="#000000" />
<use x="324" y="240" xlink:href="#p" fill="#000000" />
<use x="348" y="240" xlink:href="#p" fill="#000000" />
<use x="360" y="240" xlink:href="#p" fill="#000000" />
<use x="384" y="240" xlink:href="#p" fill="#000000" />
<use x="408" y="240" xlink:href="#p" fill="#000000" />
<use x="420" y="240" xlink:href="#p" fill="#000000" />
<use x="444" y="240" xlink:href="#p" fill="#000000" />
<use x="492" y="240" xlink:href="#p" fill="#000000" />
<use x="516" y="240" xlink:href="#p" fill="#000000" />
<use x="36" y="252" xlink:href="#p" fill="#000000" />
<use x="96" y="252" xlink:href="#p" fill="#000000" />
<use x="108" y="252" xlink:href="#p" fill="#000000" />
<use x="120" y="252" xlink:href="#p" fill="#000000" />
<use x="132" y="252" xlink:href="#p" fill="#000000" />
<use x="144" y="252" xlink:href="#p" fill="#000000" />
<use x="180" y="252" xlink:href="#p" fill="#000000" />
<use x="192" y="252" xlink:href="#p" fill="#000000" />
<use x="204" y="252" xlink:href="#p" fill="#000000" />
<use x="216" y="252" xlink:href="#p" fill="#000000" />
<use x="228" y="252" xlink:href="#p" fill="#000000" />
<use x="240" y="252" xlink:href="#p" fill="#000000" />
<use x="300" y="252" xlink:href="#p" fill="#000000" />
<use x="312" y="252" xlink:href="#p" fill="#000000" />
<use x="324" y="252" xlink:href="#p" fill="#000000" />
<use x="336" y="252" xlink:href="#p" fill="#000000" />
<use x="396" y="252" xlink:href="#p" fill="#000000" />
<use x="408" y="252" xlink:href="#p" fill="#000000" />
<use x="420" y="252" xlink:href="#p" fill="#000000" />
<use x="432" y="252" xlink:href="#p" fill="#000000" />
<use x="468" y="252" xlink:href="#p" fill="#000000" />
<use x="504" y="252" xlink:href="#p" fill="#000000" />
<use x="516" y="252" xlink:href="#p" fill="#000000" />
<use x="36" y="264" xlink:href="#p" fill="#000000" />
<use x="96" y="264" xlink:href="#p" fill="#000000" />
<use x="144" y="264" xlink:href="#p" fill="#000000" />
<use x="180" y="264" xlink:href="#p" fill="#000000" />
<use x="228" y="264" xlink:href="#p" fill="#000000" />
<use x="264" y="264" xlink:href="#p" fill="#000000" />
<use x="288" y="264" xlink:href="#p" fill="#000000" />
<use x="300" y="264" xlink:href="#p" fill="#000000" />
<use x="324" y="264" xlink:href="#p" fill="#000000" />
<use x="360" y="264" xlink:href="#p" fill="#000000" />
<use x="384" y="264" xlink:href="#p" fill="#000000" />
<use x="396" y="264" xlink:href="#p" fill="#000000" />
<use x="420" y="264" xlink:href="#p" fill="#000000" />
<use x="456" y="264" xlink:href="#p" fill="#000000" />
<use x="492" y="264" xlink:href="#p" fill="#000000" />
<use x="504" y="264" xlink:href="#p" fill="#000000" />
<use x="36" y="276" xlink:href="#p" fill="#000000" />
<use x="84" y="276" xlink:href="#p" fill="#000000" />
<use x="96" y="276" xlink:href="#p" fill="#000000" />
<use x="108" y="276" xlink:href="#p" fill="#000000" />
<use x="120" y="276" xlink:href="#p" fill="#000000" />
<use x="132" y="276" xlink:href="#p" fill="#000000" />
<use x="144" y="276" xlink:href="#p" fill="#000000" />
<use x="180" y="276" xlink:href="#p" fill="#000000" />
<use x="204" y="276" xlink:href="#p" fill="#000000" />
<use x="276" y="276" xlink:href="#p" fill="#000000" />
<use x="300" y="276" xlink:href="#p" fill="#000000" />
<use x="312" y="276" xlink:href="#p" fill="#000000" />
<use x="324" y="276" xlink:href="#p" fill="#000000" />
<use x="372" y="276" xlink:href="#p" fill="#000000" />
<use x="396" y="276" xlink:href="#p" fill="#000000" />
<use x="408" y="276" xlink:href="#p" fill="#000000" />
<use x="420" y="276" xlink:href="#p" fill="#000000" />
<use x="432" y="276" xlink:href="#p" fill="#000000" />
<use x="456" y="276" xlink:href="#p" fill="#000000" />
<use x="468" y="276" xlink:href="#p" fill="#000000" />
<use x="492" y="276" xlink:href="#p" fill="#000000" />
<use x="504" y="276" xlink:href="#p" fill="#000000" />
<use x="516" y="276" xlink:href="#p" fill="#000000" />
<use x="48" y="288" xlink:href="#p" fill="#000000" />
<use x="60" y="288" xlink:href="#p" fill="#000000" />
<use x="72" y="288" xlink:href="#p" fill="#000000" />
<use x="84" y="288" xlink:href="#p" fill="#000000" />
<use x="168" y="288" xlink:href="#p" fill="#000000" />
<use x="192" y="288" xlink:href="#p" fill="#000000" />
<use x="216" y="288" xlink:href="#p" fill="#000000" />
<use x="228" y="288" xlink:href="#p" fill="#000000" />
<use x="264" y="288" xlink:href="#p" fill="#000000" />
<use x="276" y="288" xlink:href="#p" fill="#000000" />
<use x="300" y="288" xlink:href="#p" fill="#000000" />
<use x="312" y="288" xlink:href="#p" fill="#000000" />
<use x="336" y="288" xlink:href="#p" fill="#000000" />
<use x="384" y="288" xlink:href="#p" fill="#000000" />
<use x="396" y="288" xlink:href="#p" fill="#000000" />
<use x="408" y="288" xlink:href="#p" fill="#000000" />
<use x="420" y="288" xlink:href="#p" fill="#000000" />
<use x="432" y="288" xlink:href="#p" fill="#000000" />
<use x="444" y="288" xlink:href="#p" fill="#000000" />
<use x="456" y="288" xlink:href="#p" fill="#000000" />
<use x="480" y="288" xlink:href="#p" fill="#000000" />
<use x="504" y="288" xlink:href="#p" fill="#000000" />
<use x="516" y="288" xlink:href="#p" fill="#000000" />
<use x="48" y="300" xlink:href="#p" fill="#000000" />
<use x="72" y="300" xlink:href="#p" fill="#000000" />
<use x="108" y="300" xlink:href="#p" fill="#000000" />
<use x="120" y="300" xlink:href="#p" fill="#000000" />
<use x="168" y="300" xlink:href="#p" fill="#000000" />
<use x="216" y="300" xlink:href="#p" fill="#000000" />
<use x="228" y="300" xlink:href="#p" fill="#000000" />
<use x="252" y="300" xlink:href="#p" fill="#000000" />
<use x="264" y="300" xlink:href="#p" fill="#000000" />
<use x="276" y="300" xlink:href="#p" fill="#000000" />
<use x="288" y="300" xlink:href="#p" fill="#000000" />
<use x="312" y="300" xlink:href="#p" fill="#000000" />
<use x="324" y="300" xlink:href="#p" fill="#000000" />
<use x="348" y="300" xlink:href="#p" fill="#000000" />
<use x="360" y="300" xlink:href="#p" fill="#000000" />
<use x="372" y="300" xlink:href="#p" fill="#000000" />
<use x="384" y="300" xlink:href="#p" fill="#000000" />
<use x="396" y="300" xlink:href="#p" fill="#000000" />
<use x="432" y="300" xlink:href="#p" fill="#000000" />
<use x="456" y="300" xlink:href="#p" fill="#000000" />
<use x="468" y="300" xlink:href="#p" fill="#000000" />
<use x="480" y="300" xlink:href="#p" fill="#000000" />
<use x="492" y="300" xlink:href="#p" fill="#000000" />
<use x="504" y="300" xlink:href="#p" fill="#000000" />
<use x="516" y="300" xlink:href="#p" fill="#000000" />
<use x="36" y="312" xlink:href="#p" fill="#000000" />
<use x="48" y="312" xlink:href="#p" fill="#000000" />
<use x="60" y="312" xlink:href="#p" fill="#000000" />
<use x="120" y="312" xlink:href="#p" fill="#000000" />
<use x="132" y="312" xlink:href="#p" fill="#000000" />
<use x="144" y="312" xlink:href="#p" fill="#000000" />
<use x="192" y="312" xlink:href="#p" fill="#000000" />
<use x="204" y="312" xlink:href="#p" fill="#000000" />
<use x="240" y="312" xlink:href="#p" fill="#000000" />
<use x="276" y="312" xlink:href="#p" fill="#000000" />
<use x="288" y="312" xlink:href="#p" fill="#000000" />
<use x="300" y="312" xlink:href="#p" fill="#000000" />
<use x="312" y="312" xlink:href="#p" fill="#000000" />
<use x="324" y="312" xlink:href="#p" fill="#000000" />
<use x="336" y="312" xlink:href="#p" fill="#000000" />
<use x="372" y="312" xlink:href="#p" fill="#000000" />
<use x="384" y="312" xlink:href="#p" fill="#000000" />
<use x="408" y="312" xlink:href="#p" fill="#000000" />
<use x="420" y="312" xlink:href="#p" fill="#000000" />
<use x="432" y="312" xlink:href="#p" fill="#000000" />
<use x="444" y="312" xlink:href="#p" fill="#000000" />
<use x="456" y="312" xlink:href="#p" fill="#000000" />
<use x="480" y="312" xlink:href="#p" fill="#000000" />
<use x="60" y="324" xlink:href="#p" fill="#000000" />
<use x="72" y="324" xlink:href="#p" fill="#000000" />
<use x="84" y="324" xlink:href="#p" fill="#000000" />
<use x="96" y="324" xlink:href="#p" fill="#000000" />
<use x="108" y="324" xlink:href="#p" fill="#000000" />
<use x="144" y="324" xlink:href="#p" fill="#000000" />
<use x="156" y="324" xlink:href="#p" fill="#000000" />
<use x="168" y="324" xlink:href="#p" fill="#000000" />
<use x="204" y="324" xlink:href="#p" fill="#000000" />
<use x="216" y="324" xlink:href="#p" fill="#000000" />
<use x="228" y="324" xlink:href="#p" fill="#000000" />
<use x="252" y="324" xlink:href="#p" fill="#000000" />
<use x="264" y="324" xlink:href="#p" fill="#000000" />
<use x="276" y="324" xlink:href="#p" fill="#000000" />
<use x="288" y="324" xlink:href="#p" fill="#000000" />
<use x="312" y="324" xlink:href="#p" fill="#000000" />
<use x="324" y="324" xlink:href="#p" fill="#000000" />
<use x="336" y="324" xlink:href="#p" fill="#000000" />
<use x="360" y="324" xlink:href="#p" fill="#000000" />
<use x="372" y="324" xlink:href="#p" fill="#000000" />
<use x="384" y="324" xlink:href="#p" fill="#000000" />
<use x="396" y="324" xlink:href="#p" fill="#000000" />
<use x="408" y="324" xlink:href="#p" fill="#000000" />
<use x="420" y="324" xlink:href="#p" fill="#000000" />
<use x="432" y="324" xlink:href="#p" fill="#000000" />
<use x="468" y="324" xlink:href="#p" fill="#000000" />
<use x="480" y="324" xlink:href="#p" fill="#000000" />
<use x="492" y="324" xlink:href="#p" fill="#000000" />
<use x="36" y="336" xlink:href="#p" fill="#000000" />
<use x="84" y="336" xlink:href="#p" fill="#000000" />
<use x="96" y="336" xlink:href="#p" fill="#000000" />
<use x="144" y="336" xlink:href="#p" fill="#000000" />
<use x="180" y="336" xlink:href="#p" fill="#000000" />
<use x="204" y="336" xlink:href="#p" fill="#000000" />
<use x="228" y="336" xlink:href="#p" fill="#000000" />
<use x="240" y="336" xlink:href="#p" fill="#000000" />
<use x="252" y="336" xlink:href="#p" fill="#000000" />
<use x="276" y="336" xlink:href="#p" fill="#000000" />
<use x="372" y="336" xlink:href="#p" fill="#000000" />
<use x="432" y="336" xlink:href="#p" fill="#000000" />
<use x="468" y="336" xlink:href="#p" fill="#000000" />
<use x="48" y="348" xlink:href="#p" fill="#000000" />
<use x="84" y="348" xlink:href="#p" fill="#000000" />
<use x="108" y="348" xlink:href="#p" fill="#000000" />
<use x="132" y="348" xlink:href="#p" fill="#000000" />
<use x="180" y="348" xlink:href="#p" fill="#000000" />
<use x="192" y="348" xlink:href="#p" fill="#000000" />
<use x="204" y="348" xlink:href="#p" fill="#000000" />
<use x="252" y="348" xlink:href="#p" fill="#000000" />
<use x="288" y="348" xlink:href="#p" fill="#000000" />
<use x="444" y="348" xlink:href="#p" fill="#000000" />
<use x="492" y="348" xlink:href="#p" fill="#000000" />
<use x="516" y="348" xlink:href="#p" fill="#000000" />
<use x="36" y="360" xlink:href="#p" fill="#000000" />
<use x="48" y="360" xlink:href="#p" fill="#000000" />
<use x="60" y="360" xlink:href="#p" fill="#000000" />
<use x="132" y="360" xlink:href="#p" fill="#000000" />
<use x="144" y="360" xlink:href="#p" fill="#000000" />
<use x="156" y="360" xlink:href="#p" fill="#000000" />
<use x="192" y="360" xlink:href="#p" fill="#000000" />
<use x="204" y="360" xlink:href="#p" fill="#000000" />
<use x="228" y="360" xlink:href="#p" fill="#000000" />
<use x="240" y="360" xlink:href="#p" fill="#000000" />
<use x="252" y="360" xlink:href="#p" fill="#000000" />
<use x="276" y="360" xlink:href="#p" fill="#000000" />
<use x="312" y="360" xlink:href="#p" fill="#000000" />
<use x="348" y="360" xlink:href="#p" fill="#000000" />
<use x="360" y="360" xlink:href="#p" fill="#000000" />
<use x="384" y="360" xlink:href="#p" fill="#000000" />
<use x="396" y="360" xlink:href="#p" fill="#000000" />
<use x="420" y="360" xlink:href="#p" fill="#000000" />
<use x="468" y="360" xlink:href="#p" fill="#000000" />
<use x="48" y="372" xlink:href="#p" fill="#000000" />
<use x="96" y="372" xlink:href="#p" fill="#000000" />
<use x="108" y="372" xlink:href="#p" fill="#000000" />
<use x="120" y="372" xlink:href="#p" fill="#000000" />
<use x="144" y="372" xlink:href="#p" fill="#000000" />
<use x="168" y="372" xlink:href="#p" fill="#000000" />
<use x="180" y="372" xlink:href="#p" fill="#000000" />
<use x="192" y="372" xlink:href="#p" fill="#000000" />
<use x="204" y="372" xlink:href="#p" fill="#000000" />
<use x="216" y="372" xlink:href="#p" fill="#000000" />
<use x="228" y="372" xlink:href="#p" fill="#000000" />
<use x="252" y="372" xlink:href="#p" fill="#000000" />
<use x="264" y="372" xlink:href="#p" fill="#000000" />
<use x="312" y="372" xlink:href="#p" fill="#000000" />
<use x="324" y="372" xlink:href="#p" fill="#000000" />
<use x="336" y="372" xlink:href="#p" fill="#000000" />
<use x="396" y="372" xlink:href="#p" fill="#000000" />
<use x="408" y="372" xlink:href="#p" fill="#000000" />
<use x="420" y="372" xlink:href="#p" fill="#000000" />
<use x="444" y="372" xlink:href="#p" fill="#000000" />
<use x="480" y="372" xlink:href="#p" fill="#000000" />
<use x="516" y="372" xlink:href="#p" fill="#000000" />
<use x="72" y="384" xlink:href="#p" fill="#000000" />
<use x="84" y="384" xlink:href="#p" fill="#000000" />
<use x="96" y="384" xlink:href="#p" fill="#000000" />
<use x="120" y="384" xlink:href="#p" fill="#000000" />
<use x="132" y="384" xlink:href="#p" fill="#000000" />
<use x="168" y="384" xlink:href="#p" fill="#000000" />
<use x="180" y="384" xlink:href="#p" fill="#000000" />
<use x="192" y="384" xlink:href="#p" fill="#000000" />
<use x="204" y="384" xlink:href="#p" fill="#000000" />
<use x="216" y="384" xlink:href="#p" fill="#000000" />
<use x="252" y="384" xlink:href="#p" fill="#000000" />
<use x="264" y="384" xlink:href="#p" fill="#000000" />
<use x="288" y="384" xlink:href="#p" fill="#000000" />
<use x="312" y="384" xlink:href="#p" fill="#000000" />
<use x="324" y="384" xlink:href="#p" fill="#000000" />
<use x="360" y="384" xlink:href="#p" fill="#000000" />
<use x="384" y="384" xlink:href="#p" fill="#000000" />
<use x="408" y="384" xlink:href="#p" fill="#000000" />
<use x="420" y="384" xlink:href="#p" fill="#000000" />
<use x="468" y="384" xlink:href="#p" fill="#000000" />
<use x="480" y="384" xlink:href="#p" fill="#000000" />
<use x="492" y="384" xlink:href="#p" fill="#000000" />
<use x="504" y="384" xlink:href="#p" fill="#000000" />
<use x="36" y="396" xlink:href="#p" fill="#000000" />
<use x="60" y="396" xlink:href="#p" fill="#000000" />
<use x="72" y="396" xlink:href="#p" fill="#000000" />
<use x="96" y="396" xlink:href="#p" fill="#000000" />
<use x="108" y="396" xlink:href="#p" fill="#000000" />
<use x="192" y="396" xlink:href="#p" fill="#000000" />
<use x="228" y="396" xlink:href="#p" fill="#000000" />
<use x="240" y="396" xlink:href="#p" fill="#000000" />
<use x="300" y="396" xlink:href="#p" fill="#000000" />
<use x="312" y="396" xlink:href="#p" fill="#000000" />
<use x="324" y="396" xlink:href="#p" fill="#000000" />
<use x="336" y="396" xlink:href="#p" fill="#000000" />
<use x="396" y="396" xlink:href="#p" fill="#000000" />
<use x="408" y="396" xlink:href="#p" fill="#000000" />
<use x="420" y="396" xlink:href="#p" fill="#000000" />
<use x="456" y="396" xlink:href="#p" fill="#000000" />
<use x="468" y="396" xlink:href="#p" fill="#000000" />
<use x="504" y="396" xlink:href="#p" fill="#000000" />
<use x="48" y="408" xlink:href="#p" fill="#000000" />
<use x="120" y="408" xlink:href="#p" fill="#000000" />
<use x="132" y="408" xlink:href="#p" fill="#000000" />
<use x="144" y="408" xlink:href="#p" fill="#000000" />
<use x="180" y="408" xlink:href="#p" fill="#000000" />
<use x="192" y="408" xlink:href="#p" fill="#000000" />
<use x="204" y="408" xlink:href="#p" fill="#000000" />
<use x="264" y="408" xlink:href="#p" fill="#000000" />
<use x="288" y="408" xlink:href="#p" fill="#000000" />
<use x="300" y="408" xlink:href="#p" fill="#000000" />
<use x="324" y="408" xlink:href="#p" fill="#000000" />
<use x="360" y="408" xlink:href="#p" fill="#000000" />
<use x="384" y="408" xlink:href="#p" fill="#000000" />
<use x="396" y="408" xlink:href="#p" fill="#000000" />
<use x="420" y="408" xlink:href="#p" fill="#000000" />
<use x="432" y="408" xlink:href="#p" fill="#000000" />
<use x="444" y="408" xlink:href="#p" fill="#000000" />
<use x="456" y="408" xlink:href="#p" fill="#000000" />
<use x="480" y="408" xlink:href="#p" fill="#000000" />
<use x="492" y="408" xlink:href="#p" fill="#000000" />
<use x="504" y="408" xlink:href="#p" fill="#000000" />
<use x="516" y="408" xlink:href="#p" fill="#000000" />
<use x="36" y="420" xlink:href="#p" fill="#000000" />
<use x="108" y="420" xlink:href="#p" fill="#000000" />
<use x="120" y="420" xlink:href="#p" fill="#000000" />
<use x="144" y="420" xlink:href="#p" fill="#000000" />
<use x="156" y="420" xlink:href="#p" fill="#000000" />
<use x="180" y="420" xlink:href="#p" fill="#000000" />
<use x="192" y="420" xlink:href="#p" fill="#000000" />
<use x="204" y="420" xlink:href="#p" fill="#000000" />
<use x="216" y="420" xlink:href="#p" fill="#000000" />
<use x="276" y="420" xlink:href="#p" fill="#000000" />
<use x="300" y="420" xlink:href="#p" fill="#000000" />
<use x="312" y="420" xlink:href="#p" fill="#000000" />
<use x="372" y="420" xlink:href="#p" fill="#000000" />
<use x="396" y="420" xlink:href="#p" fill="#000000" />
<use x="408" y="420" xlink:href="#p" fill="#000000" />
<use x="420" y="420" xlink:href="#p" fill="#000000" />
<use x="432" y="420" xlink:href="#p" fill="#000000" />
<use x="444" y="420" xlink:href="#p" fill="#000000" />
<use x="456" y="420" xlink:href="#p" fill="#000000" />
<use x="468" y="420" xlink:href="#p" fill="#000000" />
<use x="492" y="420" xlink:href="#p" fill="#000000" />
<use x="504" y="420" xlink:href="#p" fill="#000000" />
<use x="132" y="432" xlink:href="#p" fill="#000000" />
<use x="168" y="432" xlink:href="#p" fill="#000000" />
<use x="204" y="432" xlink:href="#p" fill="#000000" />
<use x="228" y="432" xlink:href="#p" fill="#000000" />
<use x="240" y="432" xlink:href="#p" fill="#000000" />
<use x="264" y="432" xlink:href="#p" fill="#000000" />
<use x="276" y="432" xlink:href="#p" fill="#000000" />
<use x="300" y="432" xlink:href="#p" fill="#000000" />
<use x="312" y="432" xlink:href="#p" fill="#000000" />
<use x="336" y="432" xlink:href="#p" fill="#000000" />
<use x="360" y="432" xlink:href="#p" fill="#000000" />
<use x="372" y="432" xlink:href="#p" fill="#000000" />
<use x="396" y="432" xlink:href="#p" fill="#000000" />
<use x="420" y="432" xlink:href="#p" fill="#000000" />
<use x="468" y="432" xlink:href="#p" fill="#000000" />
<use x="480" y="432" xlink:href="#p" fill="#000000" />
<use x="36" y="444" xlink:href="#p" fill="#000000" />
<use x="48" y="444" xlink:href="#p" fill="#000000" />
<use x="60" y="444" xlink:href="#p" fill="#000000" />
<use x="72" y="444" xlink:href="#p" fill="#000000" />
<use x="84" y="444" xlink:href="#p" fill="#000000" />
<use x="96" y="444" xlink:href="#p" fill="#000000" />
<use x="108" y="444" xlink:href="#p" fill="#000000" />
<use x="168" y="444" xlink:href="#p" fill="#000000" />
<use x="180" y="444" xlink:href="#p" fill="#000000" />
<use x="216" y="444" xlink:href="#p" fill="#000000" />
<use x="252" y="444" xlink:href="#p" fill="#000000" />
<use x="264" y="444" xlink:href="#p" fill="#000000" />
<use x="276" y="444" xlink:href="#p" fill="#000000" />
<use x="288" y="444" xlink:href="#p" fill="#000000" />
<use x="348" y="444" xlink:href="#p" fill="#000000" />
<use x="360" y="444" xlink:href="#p" fill="#000000" />
<use x="372" y="444" xlink:href="#p" fill="#000000" />
<use x="384" y="444" xlink:href="#p" fill="#000000" />
<use x="420" y="444" xlink:href="#p" fill="#000000" />
<use x="444" y="444" xlink:href="#p" fill="#000000" />
<use x="468" y="444" xlink:href="#p" fill="#000000" />
<use x="480" y="444" xlink:href="#p" fill="#000000" />
<use x="492" y="444" xlink:href="#p" fill="#000000" />
<use x="516" y="444" xlink:href="#p" fill="#000000" />
<use x="36" y="456" xlink:href="#p" fill="#000000" />
<use x="108" y="456" xlink:href="#p" fill="#000000" />
<use x="168" y="456" xlink:href="#p" fill="#000000" />
<use x="192" y="456" xlink:href="#p" fill="#000000" />
<use x="204" y="456" xlink:href="#p" fill="#000000" />
<use x="240" y="456" xlink:href="#p" fill="#000000" />
<use x="252" y="456" xlink:href="#p" fill="#000000" />
<use x="276" y="456" xlink:href="#p" fill="#000000" />
<use x="312" y="456" xlink:href="#p" fill="#000000" />
<use x="336" y="456" xlink:href="#p" fill="#000000" />
<use x="348" y="456" xlink:href="#p" fill="#000000" />
<use x="372" y="456" xlink:href="#p" fill="#000000" />
<use x="408" y="456" xlink:href="#p" fill="#000000" />
<use x="420" y="456" xlink:href="#p" fill="#000000" />
<use x="468" y="456" xlink:href="#p" fill="#000000" />
<use x="480" y="456" xlink:href="#p" fill="#000000" />
<use x="504" y="456" xlink:href="#p" fill="#000000" />
<use x="36" y="468" xlink:href="#p" fill="#000000" />
<use x="60" y="468" xlink:href="#p" fill="#000000" />
<use x="72" y="468" xlink:href="#p" fill="#000000" />
<use x="84" y="468" xlink:href="#p" fill="#000000" />
<use x="108" y="468" xlink:href="#p" fill="#000000" />
<use x="132" y="468" xlink:href="#p" fill="#000000" />
<use x="180" y="468" xlink:href="#p" fill="#000000" />
<use x="192" y="468" xlink:href="#p" fill="#000000" />
<use x="252" y="468" xlink:href="#p" fill="#000000" />
<use x="264" y="468" xlink:href="#p" fill="#000000" />
<use x="324" y="468" xlink:href="#p" fill="#000000" />
<use x="348" y="468" xlink:href="#p" fill="#000000" />
<use x="360" y="468" xlink:href="#p" fill="#000000" />
<use x="372" y="468" xlink:href="#p" fill="#000000" />
<use x="420" y="468" xlink:href="#p" fill="#000000" />
<use x="432" y="468" xlink:href="#p" fill="#000000" />
<use x="444" y="468" xlink:href="#p" fill="#000000" />
<use x="456" y="468" xlink:href="#p" fill="#000000" />
<use x="468" y="468" xlink:href="#p" fill="#000000" />
<use x="480" y="468" xlink:href="#p" fill="#000000" />
<use x="492" y="468" xlink:href="#p" fill="#000000" />
<use x="516" y="468" xlink:href="#p" fill="#000000" />
<use x="36" y="480" xlink:href="#p" fill="#000000" />
<use x="60" y="480" xlink:href="#p" fill="#000000" />
<use x="72" y="480" xlink:href="#p" fill="#000000" />
<use x="84" y="480" xlink:href="#p" fill="#000000" />
<use x="108" y="480" xlink:href="#p" fill="#000000" />
<use x="144" y="480" xlink:href="#p" fill="#000000" />
<use x="156" y="480" xlink:href="#p" fill="#000000" />
<use x="168" y="480" xlink:href="#p" fill="#000000" />
<use x="192" y="480" xlink:href="#p" fill="#000000" />
<use x="204" y="480" xlink:href="#p" fill="#000000" />
<use x="240" y="480" xlink:href="#p" fill="#000000" />
<use x="252" y="480" xlink:href="#p" fill="#000000" />
<use x="264" y="480" xlink:href="#p" fill="#000000" />
<use x="324" y="480" xlink:href="#p" fill="#000000" />
<use x="336" y="480" xlink:href="#p" fill="#000000" />
<use x="348" y="480" xlink:href="#p" fill="#000000" />
<use x="360" y="480" xlink:href="#p" fill="#000000" />
<use x="432" y="480" xlink:href="#p" fill="#000000" />
<use x="468" y="480" xlink:href="#p" fill="#000000" />
<use x="492" y="480" xlink:href="#p" fill="#000000" />
<use x="36" y="492" xlink:href="#p" fill="#000000" />
<use x="60" y="492" xlink:href="#p" fill="#000000" />
<use x="72" y="492" xlink:href="#p" fill="#000000" />
<use x="84" y="492" xlink:href="#p" fill="#000000" />
<use x="108" y="492" xlink:href="#p" fill="#000000" />
<use x="132" y="492" xlink:href="#p" fill="#000000" />
<use x="144" y="492" xlink:href="#p" fill="#000000" />
<use x="192" y="492" xlink:href="#p" fill="#000000" />
<use x="228" y="492" xlink:href="#p" fill="#000000" />
<use x="240" y="492" xlink:href="#p" fill="#000000" />
<use x="312" y="492" xlink:href="#p" fill="#000000" />
<use x="324" y="492" xlink:href="#p" fill="#000000" />
<use x="348" y="492" xlink:href="#p" fill="#000000" />
<use x="360" y="492" xlink:href="#p" fill="#000000" />
<use x="372" y="492" xlink:href="#p" fill="#000000" />
<use x="384" y="492" xlink:href="#p" fill="#000000" />
<use x="420" y="492" xlink:href="#p" fill="#000000" />
<use x="456" y="492" xlink:href="#p" fill="#000000" />
<use x="468" y="492" xlink:href="#p" fill="#000000" />
<use x="516" y="492" xlink:href="#p" fill="#000000" />
<use x="36" y="504" xlink:href="#p" fill="#000000" />
<use x="108" y="504" xlink:href="#p" fill="#000000" />
<use x="144" y="504" xlink:href="#p" fill="#000000" />
<use x="156" y="504" xlink:href="#p" fill="#000000" />
<use x="180" y="504" xlink:href="#p" fill="#000000" />
<use x="192" y="504" xlink:href="#p" fill="#000000" />
<use x="216" y="504" xlink:href="#p" fill="#000000" />
<use x="252" y="504" xlink:href="#p" fill="#000000" />
<use x="264" y="504" xlink:href="#p" fill="#000000" />
<use x="288" y="504" xlink:href="#p" fill="#000000" />
<use x="300" y="504" xlink:href="#p" fill="#000000" />
<use x="312" y="504" xlink:href="#p" fill="#000000" />
<use x="324" y="504" xlink:href="#p" fill="#000000" />
<use x="336" y="504" xlink:href="#p" fill="#000000" />
<use x="348" y="504" xlink:href="#p" fill="#000000" />
<use x="372" y="504" xlink:href="#p" fill="#000000" />
<use x="384" y="504" xlink:href="#p" fill="#000000" />
<use x="408" y="504" xlink:href="#p" fill="#000000" />
<use x="420" y="504" xlink:href="#p" fill="#000000" />
<use x="456" y="504" xlink:href="#p" fill="#000000" />
<use x="492" y="504" xlink:href="#p" fill="#000000" />
<use x="504" y="504" xlink:href="#p" fill="#000000" />
<use x="36" y="516" xlink:href="#p" fill="#000000" />
<use x="48" y="516" xlink:href="#p" fill="#000000" />
<use x="60" y="516" xlink:href="#p" fill="#000000" />
<use x="72" y="516" xlink:href="#p" fill="#000000" />
<use x="84" y="516" xlink:href="#p" fill="#000000" />
<use x="96" y="516" xlink:href="#p" fill="#000000" />
<use x="108" y="516" xlink:href="#p" fill="#000000" />
<use x="132" y="516" xlink:href="#p" fill="#000000" />
<use x="144" y="516" xlink:href="#p" fill="#000000" />
<use x="156" y="516" xlink:href="#p" fill="#000000" />
<use x="192" y="516" xlink:href="#p" fill="#000000" />
<use x="216" y="516" xlink:href="#p" fill="#000000" />
<use x="276" y="516" xlink:href="#p" fill="#000000" />
<use x="288" y="516" xlink:href="#p" fill="#000000" />
<use x="300" y="516" xlink:href="#p" fill="#000000" />
<use x="312" y="516" xlink:href="#p" fill="#000000" />
<use x="336" y="516" xlink:href="#p" fill="#000000" />
<use x="360" y="516" xlink:href="#p" fill="#000000" />
<use x="372" y="516" xlink:href="#p" fill="#000000" />
<use x="384" y="516" xlink:href="#p" fill="#000000" />
<use x="420" y="516" xlink:href="#p" fill="#000000" />
<use x="456" y="516" xlink:href="#p" fill="#000000" />
<use x="468" y="516" xlink:href="#p" fill="#000000" />
<use x="492" y="516" xlink:href="#p" fill="#000000" />
<use x="504" y="516" xlink:href="#p" fill="#000000" />
<use x="516" y="516" xlink:href="#p" fill="#000000" />
</g>
</svg>